<?xml version="1.0" standalone="no"?>
<!DOCTYPE svg PUBLIC "-//W3C//DTD SVG 20010904//EN"
 "http://www.w3.org/TR/2001/REC-SVG-20010904/DTD/svg10.dtd">
<svg version="1.0" xmlns="http://www.w3.org/2000/svg"
 width="261.000000pt" height="261.000000pt" viewBox="0 0 261.000000 261.000000"
 preserveAspectRatio="xMidYMid meet">
<metadata>
Created by potrace 1.14, written by Peter Selinger 2001-2017
</metadata>
<g transform="translate(0.000000,261.000000) scale(0.100000,-0.100000)"
fill="#000000" stroke="none">
<path d="M1314 2456 c-8 -21 32 -150 51 -166 24 -20 42 -5 80 69 39 78 42 91
20 91 -8 0 -28 -27 -45 -60 -17 -33 -32 -60 -34 -60 -3 0 -14 29 -26 65 -23
68 -36 86 -46 61z"/>
<path d="M1164 2395 c7 -63 -5 -66 -41 -10 -32 48 -56 59 -83 37 l-21 -17 18
-68 c22 -78 38 -87 38 -22 0 25 5 44 10 44 6 -1 25 -19 44 -41 23 -27 40 -38
55 -36 18 3 21 10 21 53 -1 53 -21 115 -38 115 -6 0 -7 -20 -3 -55z"/>
<path d="M1604 2408 c-16 -25 -36 -83 -41 -118 -5 -41 12 -56 77 -66 33 -5 40
-4 40 10 0 10 -11 19 -30 22 -32 7 -57 30 -46 42 5 4 25 7 47 7 47 0 52 17 9
29 -35 10 -39 43 -5 38 46 -7 58 -6 62 5 9 25 -98 55 -113 31z"/>
<path d="M800 2347 c-32 -16 -54 -61 -45 -94 17 -71 97 -95 154 -47 26 21 31
33 31 69 0 35 -5 48 -26 64 -30 24 -77 27 -114 8z m94 -39 c22 -30 20 -54 -5
-79 -36 -36 -99 -6 -99 47 0 52 74 75 104 32z"/>
<path d="M1822 2287 c-50 -52 -71 -136 -23 -93 32 29 56 17 56 -29 0 -52 28
-61 44 -14 6 17 22 42 36 55 14 13 25 27 25 33 0 15 -73 81 -91 81 -8 0 -29
-15 -47 -33z m85 -34 c14 -21 14 -23 -2 -29 -24 -9 -49 8 -53 35 -3 18 1 22
19 19 12 -2 28 -13 36 -25z"/>
<path d="M585 2211 c-64 -27 -78 -107 -26 -153 37 -33 78 -36 113 -8 35 27 54
75 38 95 -19 23 -30 18 -30 -14 0 -37 -23 -61 -60 -61 -30 0 -60 30 -60 62 0
24 28 48 56 48 19 0 25 5 22 17 -4 20 -24 26 -53 14z"/>
<path d="M1195 2170 c-364 -50 -642 -298 -737 -655 -42 -156 -26 -377 37 -534
101 -247 317 -438 580 -513 114 -32 335 -33 447 -1 306 88 522 302 614 610 24
77 27 106 27 228 0 112 -4 156 -21 220 -85 313 -339 558 -653 629 -85 19 -219
26 -294 16z m419 -556 c36 -35 7 -84 -49 -84 -19 0 -36 -4 -40 -10 -3 -5 6
-33 21 -62 22 -42 28 -71 32 -139 4 -78 2 -92 -23 -148 -62 -136 -245 -227
-245 -121 0 24 7 35 31 48 52 28 99 73 121 115 30 59 22 149 -17 208 l-30 44
-6 -62 c-7 -75 -21 -95 -63 -91 -29 3 -31 6 -39 58 -13 86 -2 232 19 247 28
20 268 18 288 -3z m-399 -38 c8 -24 7 -31 -10 -43 -95 -67 -115 -87 -139 -135
-33 -65 -33 -117 -1 -185 33 -72 51 -70 57 7 5 74 24 99 65 84 l28 -9 3 -141
c2 -117 0 -143 -13 -154 -10 -8 -56 -13 -144 -13 -138 -2 -161 5 -161 48 0 30
16 42 72 50 l47 7 -24 37 c-60 92 -68 213 -22 314 59 129 213 214 242 133z"/>
<path d="M2060 2151 c16 -31 12 -45 -25 -92 -54 -68 -42 -83 22 -25 46 40 61
46 91 35 l23 -9 -18 31 c-17 29 -77 79 -96 79 -4 0 -3 -9 3 -19z"/>
<path d="M2264 1830 c131 -277 164 -523 105 -778 -20 -86 -101 -272 -144 -328
-29 -38 -32 -54 -7 -54 23 0 94 114 133 214 64 166 73 215 73 411 1 167 -1
187 -27 280 -30 111 -101 261 -147 315 -30 34 -29 31 14 -60z"/>
<path d="M326 1850 c-111 -173 -177 -430 -162 -637 14 -194 94 -428 182 -528
l35 -40 -46 94 c-62 125 -111 276 -126 386 -15 116 -6 317 19 411 20 74 105
262 142 313 11 16 20 36 20 45 0 32 -26 14 -64 -44z"/>
<path d="M1979 611 c-33 -33 -42 -101 -14 -101 9 0 15 9 15 23 0 58 67 89 103
49 32 -35 15 -82 -29 -82 -31 0 -40 -18 -20 -38 15 -15 19 -15 43 -2 14 8 35
27 46 42 18 24 19 32 8 68 -21 71 -100 92 -152 41z"/>
<path d="M614 554 c-24 -36 -69 -57 -107 -49 -32 6 -32 6 20 -44 28 -28 55
-51 60 -51 5 0 7 15 5 34 -3 28 2 41 32 74 20 22 36 45 36 51 0 20 -29 11 -46
-15z"/>
<path d="M777 464 c-4 -4 -7 -15 -7 -25 0 -10 -12 -31 -26 -48 -35 -41 -28
-69 25 -106 l43 -30 34 39 c35 41 63 110 50 124 -5 4 -15 -3 -23 -15 -29 -43
-74 -22 -70 32 2 27 -12 43 -26 29z m43 -124 c9 -16 8 -22 -6 -27 -20 -8 -48
8 -52 31 -5 24 45 21 58 -4z"/>
<path d="M1758 440 c-27 -27 -30 -36 -25 -71 8 -61 32 -82 86 -76 59 7 95 43
94 94 -2 80 -96 112 -155 53z m106 -16 c34 -33 8 -104 -38 -104 -35 0 -66 28
-66 60 0 36 24 60 60 60 16 0 36 -7 44 -16z"/>
<path d="M1602 335 c1 -70 -10 -74 -55 -19 -28 33 -69 46 -82 25 -8 -14 24
-137 42 -158 13 -16 14 -12 9 40 -2 31 -1 57 4 57 5 0 27 -18 50 -41 54 -55
75 -50 74 16 0 29 -9 69 -22 95 l-21 45 1 -60z"/>
<path d="M990 371 c0 -14 23 -29 50 -33 17 -2 25 -9 25 -23 0 -17 -6 -20 -37
-17 -48 4 -52 -21 -7 -37 45 -15 32 -37 -20 -33 -48 4 -54 -11 -11 -33 43 -22
65 -19 94 16 21 25 26 41 26 84 0 44 -4 57 -22 69 -24 17 -98 22 -98 7z"/>
<path d="M1265 316 c-20 -31 -55 -121 -55 -142 0 -26 29 3 54 55 11 24 25 44
30 45 4 0 18 -24 30 -54 21 -53 55 -78 48 -35 -6 32 -66 149 -79 153 -6 2 -19
-8 -28 -22z"/>
</g>
</svg>
